<mxfile host="app.diagrams.net" modified="2023-05-29T22:58:57.626Z" agent="Mozilla/5.0 (Windows NT 10.0; Win64; x64) AppleWebKit/537.36 (KHTML, like Gecko) Chrome/113.0.0.0 Safari/537.36" etag="pp6q_SKf8criGr3clzdx" version="21.3.4" type="github">
  <diagram name="PÃ¡gina-1" id="YYQkypQMa-baSCwQLt15">
    <mxGraphModel dx="1041" dy="519" grid="1" gridSize="10" guides="1" tooltips="1" connect="1" arrows="1" fold="1" page="1" pageScale="1" pageWidth="827" pageHeight="1169" math="0" shadow="0">
      <root>
        <mxCell id="0" />
        <mxCell id="1" parent="0" />
        <mxCell id="Gs9yT5V5ad0SXEg7Nf4w-4" value="BARCO" style="rounded=0;whiteSpace=wrap;html=1;" vertex="1" parent="1">
          <mxGeometry x="340" y="570" width="120" height="60" as="geometry" />
        </mxCell>
        <mxCell id="Gs9yT5V5ad0SXEg7Nf4w-5" value="SOCIO" style="rounded=0;whiteSpace=wrap;html=1;" vertex="1" parent="1">
          <mxGeometry x="150" y="470" width="120" height="60" as="geometry" />
        </mxCell>
        <mxCell id="Gs9yT5V5ad0SXEg7Nf4w-7" value="PATRON" style="rounded=0;whiteSpace=wrap;html=1;" vertex="1" parent="1">
          <mxGeometry x="680" y="570" width="120" height="60" as="geometry" />
        </mxCell>
        <mxCell id="Gs9yT5V5ad0SXEg7Nf4w-8" value="CLUB NAUTICO" style="rounded=0;whiteSpace=wrap;html=1;" vertex="1" parent="1">
          <mxGeometry x="150" y="180" width="120" height="60" as="geometry" />
        </mxCell>
        <mxCell id="Gs9yT5V5ad0SXEg7Nf4w-9" value="rut" style="rounded=1;whiteSpace=wrap;html=1;" vertex="1" parent="1">
          <mxGeometry x="30" y="430" width="60" height="30" as="geometry" />
        </mxCell>
        <mxCell id="Gs9yT5V5ad0SXEg7Nf4w-10" value="Nombre Completo" style="rounded=1;whiteSpace=wrap;html=1;" vertex="1" parent="1">
          <mxGeometry x="30" y="480" width="60" height="30" as="geometry" />
        </mxCell>
        <mxCell id="Gs9yT5V5ad0SXEg7Nf4w-12" value="Tiene" style="rhombus;whiteSpace=wrap;html=1;" vertex="1" parent="1">
          <mxGeometry x="170" y="300" width="80" height="80" as="geometry" />
        </mxCell>
        <mxCell id="Gs9yT5V5ad0SXEg7Nf4w-13" value="" style="endArrow=none;html=1;rounded=0;exitX=0.5;exitY=0;exitDx=0;exitDy=0;" edge="1" parent="1" source="Gs9yT5V5ad0SXEg7Nf4w-5">
          <mxGeometry width="50" height="50" relative="1" as="geometry">
            <mxPoint x="390" y="470" as="sourcePoint" />
            <mxPoint x="210" y="390" as="targetPoint" />
            <Array as="points">
              <mxPoint x="210" y="400" />
              <mxPoint x="210" y="380" />
            </Array>
          </mxGeometry>
        </mxCell>
        <mxCell id="Gs9yT5V5ad0SXEg7Nf4w-17" value="n" style="edgeLabel;html=1;align=center;verticalAlign=middle;resizable=0;points=[];" vertex="1" connectable="0" parent="Gs9yT5V5ad0SXEg7Nf4w-13">
          <mxGeometry x="-0.3458" relative="1" as="geometry">
            <mxPoint as="offset" />
          </mxGeometry>
        </mxCell>
        <mxCell id="Gs9yT5V5ad0SXEg7Nf4w-14" value="" style="endArrow=none;html=1;rounded=0;entryX=0.5;entryY=1;entryDx=0;entryDy=0;exitX=0.5;exitY=0;exitDx=0;exitDy=0;" edge="1" parent="1" source="Gs9yT5V5ad0SXEg7Nf4w-12" target="Gs9yT5V5ad0SXEg7Nf4w-8">
          <mxGeometry width="50" height="50" relative="1" as="geometry">
            <mxPoint x="390" y="470" as="sourcePoint" />
            <mxPoint x="440" y="420" as="targetPoint" />
          </mxGeometry>
        </mxCell>
        <mxCell id="Gs9yT5V5ad0SXEg7Nf4w-15" value="1" style="edgeLabel;html=1;align=center;verticalAlign=middle;resizable=0;points=[];" vertex="1" connectable="0" parent="Gs9yT5V5ad0SXEg7Nf4w-14">
          <mxGeometry x="0.634" relative="1" as="geometry">
            <mxPoint as="offset" />
          </mxGeometry>
        </mxCell>
        <mxCell id="Gs9yT5V5ad0SXEg7Nf4w-18" value="" style="endArrow=none;html=1;rounded=0;exitX=0.014;exitY=0.603;exitDx=0;exitDy=0;exitPerimeter=0;entryX=1;entryY=0.5;entryDx=0;entryDy=0;" edge="1" parent="1" source="Gs9yT5V5ad0SXEg7Nf4w-5" target="Gs9yT5V5ad0SXEg7Nf4w-9">
          <mxGeometry width="50" height="50" relative="1" as="geometry">
            <mxPoint x="390" y="470" as="sourcePoint" />
            <mxPoint x="440" y="420" as="targetPoint" />
          </mxGeometry>
        </mxCell>
        <mxCell id="Gs9yT5V5ad0SXEg7Nf4w-22" value="" style="endArrow=none;html=1;rounded=0;exitX=0.002;exitY=0.614;exitDx=0;exitDy=0;exitPerimeter=0;entryX=1;entryY=0.5;entryDx=0;entryDy=0;" edge="1" parent="1" source="Gs9yT5V5ad0SXEg7Nf4w-5" target="Gs9yT5V5ad0SXEg7Nf4w-10">
          <mxGeometry width="50" height="50" relative="1" as="geometry">
            <mxPoint x="390" y="470" as="sourcePoint" />
            <mxPoint x="440" y="420" as="targetPoint" />
          </mxGeometry>
        </mxCell>
        <mxCell id="Gs9yT5V5ad0SXEg7Nf4w-24" value="Direccion" style="rounded=1;whiteSpace=wrap;html=1;" vertex="1" parent="1">
          <mxGeometry x="30" y="530" width="60" height="30" as="geometry" />
        </mxCell>
        <mxCell id="Gs9yT5V5ad0SXEg7Nf4w-26" value="" style="endArrow=none;html=1;rounded=0;exitX=1;exitY=0.5;exitDx=0;exitDy=0;entryX=-0.009;entryY=0.603;entryDx=0;entryDy=0;entryPerimeter=0;" edge="1" parent="1" source="Gs9yT5V5ad0SXEg7Nf4w-24" target="Gs9yT5V5ad0SXEg7Nf4w-5">
          <mxGeometry width="50" height="50" relative="1" as="geometry">
            <mxPoint x="390" y="470" as="sourcePoint" />
            <mxPoint x="440" y="420" as="targetPoint" />
          </mxGeometry>
        </mxCell>
        <mxCell id="Gs9yT5V5ad0SXEg7Nf4w-28" value="Numero de Barcos" style="rounded=1;whiteSpace=wrap;html=1;" vertex="1" parent="1">
          <mxGeometry x="30" y="580" width="60" height="30" as="geometry" />
        </mxCell>
        <mxCell id="Gs9yT5V5ad0SXEg7Nf4w-30" value="Matricula barco" style="rounded=1;whiteSpace=wrap;html=1;fillColor=#d5e8d4;strokeColor=#82b366;" vertex="1" parent="1">
          <mxGeometry x="30" y="630" width="60" height="30" as="geometry" />
        </mxCell>
        <mxCell id="Gs9yT5V5ad0SXEg7Nf4w-31" value="Matricula barco" style="rounded=1;whiteSpace=wrap;html=1;fillColor=#d5e8d4;strokeColor=#82b366;" vertex="1" parent="1">
          <mxGeometry x="190" y="700" width="60" height="30" as="geometry" />
        </mxCell>
        <mxCell id="Gs9yT5V5ad0SXEg7Nf4w-32" value="Numero Amarre" style="rounded=1;whiteSpace=wrap;html=1;" vertex="1" parent="1">
          <mxGeometry x="270" y="700" width="60" height="30" as="geometry" />
        </mxCell>
        <mxCell id="Gs9yT5V5ad0SXEg7Nf4w-33" value="Nombre barco" style="rounded=1;whiteSpace=wrap;html=1;" vertex="1" parent="1">
          <mxGeometry x="354" y="700" width="60" height="30" as="geometry" />
        </mxCell>
        <mxCell id="Gs9yT5V5ad0SXEg7Nf4w-34" value="rut" style="rounded=1;whiteSpace=wrap;html=1;" vertex="1" parent="1">
          <mxGeometry x="710" y="670" width="60" height="30" as="geometry" />
        </mxCell>
        <mxCell id="Gs9yT5V5ad0SXEg7Nf4w-35" value="Nombre Completo" style="rounded=1;whiteSpace=wrap;html=1;" vertex="1" parent="1">
          <mxGeometry x="710" y="720" width="60" height="30" as="geometry" />
        </mxCell>
        <mxCell id="Gs9yT5V5ad0SXEg7Nf4w-36" value="Direccion" style="rounded=1;whiteSpace=wrap;html=1;" vertex="1" parent="1">
          <mxGeometry x="710" y="770" width="60" height="30" as="geometry" />
        </mxCell>
        <mxCell id="Gs9yT5V5ad0SXEg7Nf4w-37" value="Tiene" style="rhombus;whiteSpace=wrap;html=1;" vertex="1" parent="1">
          <mxGeometry x="530" y="560" width="80" height="80" as="geometry" />
        </mxCell>
        <mxCell id="Gs9yT5V5ad0SXEg7Nf4w-38" value="" style="endArrow=none;html=1;rounded=0;entryX=0;entryY=0.5;entryDx=0;entryDy=0;exitX=1;exitY=0.5;exitDx=0;exitDy=0;" edge="1" parent="1" source="Gs9yT5V5ad0SXEg7Nf4w-4" target="Gs9yT5V5ad0SXEg7Nf4w-37">
          <mxGeometry width="50" height="50" relative="1" as="geometry">
            <mxPoint x="420" y="630" as="sourcePoint" />
            <mxPoint x="470" y="580" as="targetPoint" />
          </mxGeometry>
        </mxCell>
        <mxCell id="Gs9yT5V5ad0SXEg7Nf4w-40" value="1" style="edgeLabel;html=1;align=center;verticalAlign=middle;resizable=0;points=[];" vertex="1" connectable="0" parent="Gs9yT5V5ad0SXEg7Nf4w-38">
          <mxGeometry x="-0.3683" y="1" relative="1" as="geometry">
            <mxPoint as="offset" />
          </mxGeometry>
        </mxCell>
        <mxCell id="Gs9yT5V5ad0SXEg7Nf4w-39" value="" style="endArrow=none;html=1;rounded=0;entryX=0;entryY=0.5;entryDx=0;entryDy=0;exitX=1;exitY=0.5;exitDx=0;exitDy=0;" edge="1" parent="1" source="Gs9yT5V5ad0SXEg7Nf4w-37" target="Gs9yT5V5ad0SXEg7Nf4w-7">
          <mxGeometry width="50" height="50" relative="1" as="geometry">
            <mxPoint x="420" y="630" as="sourcePoint" />
            <mxPoint x="470" y="580" as="targetPoint" />
          </mxGeometry>
        </mxCell>
        <mxCell id="Gs9yT5V5ad0SXEg7Nf4w-41" value="1" style="edgeLabel;html=1;align=center;verticalAlign=middle;resizable=0;points=[];" vertex="1" connectable="0" parent="Gs9yT5V5ad0SXEg7Nf4w-39">
          <mxGeometry x="0.4698" y="1" relative="1" as="geometry">
            <mxPoint as="offset" />
          </mxGeometry>
        </mxCell>
        <mxCell id="Gs9yT5V5ad0SXEg7Nf4w-42" value="Tiene" style="rhombus;whiteSpace=wrap;html=1;" vertex="1" parent="1">
          <mxGeometry x="170" y="560" width="80" height="80" as="geometry" />
        </mxCell>
        <mxCell id="Gs9yT5V5ad0SXEg7Nf4w-43" value="" style="endArrow=none;html=1;rounded=0;exitX=0.5;exitY=0;exitDx=0;exitDy=0;entryX=0.5;entryY=1;entryDx=0;entryDy=0;" edge="1" parent="1" source="Gs9yT5V5ad0SXEg7Nf4w-42" target="Gs9yT5V5ad0SXEg7Nf4w-5">
          <mxGeometry width="50" height="50" relative="1" as="geometry">
            <mxPoint x="300" y="630" as="sourcePoint" />
            <mxPoint x="350" y="580" as="targetPoint" />
          </mxGeometry>
        </mxCell>
        <mxCell id="Gs9yT5V5ad0SXEg7Nf4w-45" value="1" style="edgeLabel;html=1;align=center;verticalAlign=middle;resizable=0;points=[];" vertex="1" connectable="0" parent="Gs9yT5V5ad0SXEg7Nf4w-43">
          <mxGeometry x="0.3044" relative="1" as="geometry">
            <mxPoint as="offset" />
          </mxGeometry>
        </mxCell>
        <mxCell id="Gs9yT5V5ad0SXEg7Nf4w-44" value="" style="endArrow=none;html=1;rounded=0;exitX=0.954;exitY=0.519;exitDx=0;exitDy=0;exitPerimeter=0;entryX=0;entryY=0.5;entryDx=0;entryDy=0;" edge="1" parent="1" source="Gs9yT5V5ad0SXEg7Nf4w-42" target="Gs9yT5V5ad0SXEg7Nf4w-4">
          <mxGeometry width="50" height="50" relative="1" as="geometry">
            <mxPoint x="300" y="630" as="sourcePoint" />
            <mxPoint x="350" y="580" as="targetPoint" />
          </mxGeometry>
        </mxCell>
        <mxCell id="Gs9yT5V5ad0SXEg7Nf4w-46" value="n" style="edgeLabel;html=1;align=center;verticalAlign=middle;resizable=0;points=[];" vertex="1" connectable="0" parent="Gs9yT5V5ad0SXEg7Nf4w-44">
          <mxGeometry x="0.5963" y="3" relative="1" as="geometry">
            <mxPoint as="offset" />
          </mxGeometry>
        </mxCell>
        <mxCell id="Gs9yT5V5ad0SXEg7Nf4w-47" value="" style="endArrow=none;html=1;rounded=0;exitX=1;exitY=0.5;exitDx=0;exitDy=0;" edge="1" parent="1" source="Gs9yT5V5ad0SXEg7Nf4w-28">
          <mxGeometry width="50" height="50" relative="1" as="geometry">
            <mxPoint x="300" y="630" as="sourcePoint" />
            <mxPoint x="150" y="510" as="targetPoint" />
          </mxGeometry>
        </mxCell>
        <mxCell id="Gs9yT5V5ad0SXEg7Nf4w-48" value="" style="endArrow=none;html=1;rounded=0;exitX=1;exitY=0.5;exitDx=0;exitDy=0;entryX=0.008;entryY=0.627;entryDx=0;entryDy=0;entryPerimeter=0;" edge="1" parent="1" source="Gs9yT5V5ad0SXEg7Nf4w-30" target="Gs9yT5V5ad0SXEg7Nf4w-5">
          <mxGeometry width="50" height="50" relative="1" as="geometry">
            <mxPoint x="290" y="630" as="sourcePoint" />
            <mxPoint x="340" y="580" as="targetPoint" />
          </mxGeometry>
        </mxCell>
        <mxCell id="Gs9yT5V5ad0SXEg7Nf4w-52" value="" style="endArrow=none;html=1;rounded=0;exitX=0.5;exitY=0;exitDx=0;exitDy=0;entryX=0.5;entryY=1;entryDx=0;entryDy=0;" edge="1" parent="1" source="Gs9yT5V5ad0SXEg7Nf4w-31" target="Gs9yT5V5ad0SXEg7Nf4w-4">
          <mxGeometry width="50" height="50" relative="1" as="geometry">
            <mxPoint x="290" y="630" as="sourcePoint" />
            <mxPoint x="340" y="580" as="targetPoint" />
          </mxGeometry>
        </mxCell>
        <mxCell id="Gs9yT5V5ad0SXEg7Nf4w-53" value="" style="endArrow=none;html=1;rounded=0;exitX=0.5;exitY=0;exitDx=0;exitDy=0;entryX=0.5;entryY=1;entryDx=0;entryDy=0;" edge="1" parent="1" source="Gs9yT5V5ad0SXEg7Nf4w-32" target="Gs9yT5V5ad0SXEg7Nf4w-4">
          <mxGeometry width="50" height="50" relative="1" as="geometry">
            <mxPoint x="290" y="630" as="sourcePoint" />
            <mxPoint x="340" y="580" as="targetPoint" />
          </mxGeometry>
        </mxCell>
        <mxCell id="Gs9yT5V5ad0SXEg7Nf4w-54" value="" style="endArrow=none;html=1;rounded=0;exitX=0.5;exitY=0;exitDx=0;exitDy=0;entryX=0.5;entryY=1;entryDx=0;entryDy=0;" edge="1" parent="1" source="Gs9yT5V5ad0SXEg7Nf4w-33" target="Gs9yT5V5ad0SXEg7Nf4w-4">
          <mxGeometry width="50" height="50" relative="1" as="geometry">
            <mxPoint x="290" y="630" as="sourcePoint" />
            <mxPoint x="340" y="580" as="targetPoint" />
          </mxGeometry>
        </mxCell>
        <mxCell id="Gs9yT5V5ad0SXEg7Nf4w-60" value="Cuota" style="rounded=1;whiteSpace=wrap;html=1;" vertex="1" parent="1">
          <mxGeometry x="430" y="700" width="60" height="30" as="geometry" />
        </mxCell>
        <mxCell id="Gs9yT5V5ad0SXEg7Nf4w-61" value="" style="endArrow=none;html=1;rounded=0;exitX=0.5;exitY=1;exitDx=0;exitDy=0;entryX=0.5;entryY=0;entryDx=0;entryDy=0;" edge="1" parent="1" source="Gs9yT5V5ad0SXEg7Nf4w-4" target="Gs9yT5V5ad0SXEg7Nf4w-60">
          <mxGeometry width="50" height="50" relative="1" as="geometry">
            <mxPoint x="360" y="590" as="sourcePoint" />
            <mxPoint x="410" y="540" as="targetPoint" />
          </mxGeometry>
        </mxCell>
      </root>
    </mxGraphModel>
  </diagram>
</mxfile>
